<svg xmlns="http://www.w3.org/2000/svg" width="920" height="594" fill="none"><path fill="#fff" fill-rule="evenodd" d="M388.518 108.407c1.788.104 5.31.363 7.832.576 2.521.216 6.047.576 7.832.803 2.341.299 3.992.768 5.921 1.686 1.83.868 3.58 2.129 5.551 3.992 1.582 1.498 3.664 3.858 4.623 5.245.963 1.386 2.074 3.062 2.472 3.717.718 1.185.718 1.207-.039 1.726-.42.288-1.707.871-2.865 1.3-1.734.641-2.903.778-6.686.785-3.365.004-5.245-.176-7.067-.67-1.364-.374-3.771-1.181-5.349-1.797-1.574-.613-4.325-2.025-6.112-3.134-1.785-1.106-4.363-3.141-5.731-4.518-1.364-1.379-3.129-3.667-3.916-5.09s-1.456-2.82-1.482-3.105c-.031-.288.355-.785.859-1.113.734-.475 1.54-.551 4.157-.403m171.123.227c1.834-.004 3.072.162 3.381.45.264.252.482.821.478 1.268s-.428 1.581-.944 2.521c-.515.941-1.287 2.198-1.715 2.792-.428.595-1.685 1.949-2.789 3.015-1.104 1.063-3.041 2.63-4.302 3.487-1.26.854-3.583 2.115-5.157 2.796-1.578.684-4.069 1.542-5.54 1.906-1.83.45-3.942.652-6.686.634-3.19-.022-4.481-.191-6.303-.84-1.261-.45-2.552-1.03-2.865-1.289-.501-.411-.279-.923 1.719-3.992 1.26-1.934 3.495-4.679 4.966-6.102 1.582-1.528 3.534-2.986 4.776-3.574 1.153-.547 3.216-1.203 4.584-1.459 1.364-.255 4.89-.655 7.832-.886 2.942-.234 5.421-.49 5.509-.573s1.463-.151 3.056-.154m-44.477 20.702c2.312.069 5.578.396 7.259.728 1.681.335 4.069 1.037 5.31 1.57 1.238.53 2.766 1.528 3.393 2.223.951 1.052 1.115 1.502.982 2.702-.092.792-.627 2.046-1.2 2.792-.569.742-1.853 1.916-2.85 2.608-.997.688-3.274 1.974-5.062 2.853-1.788.875-5.398 2.402-8.023 3.39-2.628.987-6.754 2.373-9.169 3.076-2.414.706-6.8 1.848-9.742 2.54-2.942.688-8.615 1.912-12.607 2.719-3.992.804-7.859 1.463-8.596 1.463-.737-.004-5.635-.807-10.888-1.79-5.253-.98-11.53-2.266-13.945-2.85-2.414-.587-6.758-1.812-9.646-2.72-2.888-.907-7.014-2.392-9.169-3.292-2.155-.904-5.119-2.342-6.59-3.199s-3.496-2.432-4.501-3.494-1.921-2.421-2.036-3.015-.111-1.528.011-2.072c.123-.544.703-1.437 1.288-1.981.588-.544 1.88-1.355 2.865-1.801.99-.447 2.873-1.056 4.187-1.358s4.107-.649 6.209-.775c2.353-.137 5.065-.05 7.067.227 1.784.249 5.051.929 7.259 1.52 2.204.587 6.418 1.967 9.36 3.066s8.099 3.199 11.461 4.665c3.362 1.47 6.285 2.669 6.495 2.669s2.961-1.153 6.113-2.565c3.151-1.412 7.449-3.26 9.551-4.11 2.101-.846 5.367-2.057 7.258-2.684 1.891-.626 4.814-1.469 6.495-1.873 1.681-.4 4.004-.868 5.158-1.041 1.153-.173 3.992-.256 6.303-.191m-39.732-34.662c2.926.094 3.805.274 5.922 1.236a13.5 13.5 0 0 1 4.305 3.055c1.001 1.063 2.147 2.741 2.545 3.732.397.991.844 2.612.989 3.602.157 1.048.073 2.706-.195 3.963-.256 1.189-.917 2.954-1.474 3.923-.558.969-1.872 2.482-2.923 3.357-1.051.879-2.598 1.902-3.438 2.273-.841.375-2.56.832-3.821 1.02-1.387.205-3.159.212-4.489.018-1.207-.18-3.014-.681-4.011-1.121-.997-.436-2.774-1.693-3.947-2.791-1.513-1.413-2.391-2.627-3.014-4.158-.626-1.541-.882-2.935-.894-4.863-.008-1.632.241-3.415.634-4.503.359-.99 1.246-2.572 1.975-3.512.734-.94 1.888-2.11 2.572-2.604.683-.49 2.273-1.305 3.533-1.812 1.995-.804 2.74-.908 5.731-.815" clip-rule="evenodd"/><path fill="#fff" fill-opacity=".5" d="M474.911.001c.63-.014 1.792.133 2.579.331.787.195 2.146.966 3.017 1.708s3.691 4.348 6.266 8.015c2.575 3.663 6.105 9.013 7.847 11.887 1.743 2.871 4.317 7.493 5.723 10.267s3.049 6.297 3.652 7.832c.325.825.669 1.567.949 2.077s.78 1.68.844 1.882c1.545 4.878 2.796 8.5 3.739 12.43l.283 1.175c.642 2.677 1.459 6.892 1.818 9.367.474 3.245.662 7.072.673 13.69.012 7.97-.092 9.66-.787 12.787-.439 1.981-1.379 5.59-2.082 8.019-.707 2.428-1.395 4.294-1.532 4.142-.134-.152-.329-4.002-.436-8.558-.141-6.203-.443-10.008-1.199-15.13-.558-3.765-1.433-8.79-1.949-11.168s-1.551-6.35-2.296-8.825c-.138-.456-.277-.9-.41-1.323-1.322-4.606-2.822-8.106-4.429-12.023l-1.315-3.135c-.978-2.327-2.927-6.502-4.33-9.276-1.405-2.774-3.762-7.071-5.237-9.546a243 243 0 0 0-5.329-8.466c-1.455-2.18-3.328-4.888-4.161-6.02-.833-1.13-1.688-2.012-1.898-1.958-.211.055-1.636 1.87-3.171 4.038a250 250 0 0 0-5.537 8.263c-1.512 2.378-4.396 7.403-6.406 11.167-2.013 3.765-4.447 8.628-5.414 10.807-.832 1.877-1.608 3.792-1.886 4.635-1.209 2.908-2.252 5.409-3.171 8.514-.023-.006.006-.007 0 0-.088.1-.6 1.6-1.135 3.332-.539 1.733-1.395 4.813-1.906 6.844-.509 2.032-1.273 5.638-1.701 8.016-.424 2.377-1.054 7-1.406 10.266-.348 3.268-.741 9.335-1.123 21.013l-2.194-5.112c-.925-2.954-1.42-6.93-1.744-8.516-.421-2.082-.593-5.385-.616-11.888-.019-5.464.168-10.493.474-12.788.275-2.082 1.024-6.293 1.662-9.366.212-1.018.429-2.014.63-2.908.561-2.499 1.229-5.056 2.021-7.999.537-1.997 1.263-4.043 2.18-6.191.284-.666.653-1.561 1.037-2.535.783-1.98 2.27-5.464 3.305-7.745s2.528-5.277 3.319-6.664 2.518-4.142 3.836-6.124 4.081-5.871 6.14-8.645 4.58-5.915 5.6-6.982c1.02-1.066 2.338-2.182 2.93-2.485.588-.303 1.532-.674 2.102-.825A11.7 11.7 0 0 1 474.911 0"/><path fill="#fff" fill-opacity=".75" d="M525.075 32.022c.997-.008 2.331.226 2.961.525.631.299 1.566 1.067 2.078 1.712s1.448 2.712 2.082 4.593c.631 1.88 1.835 6.177 2.671 9.546.841 3.368 1.803 7.582 2.135 9.366.336 1.783.715 5.835.841 9.006.137 3.551.049 7.284-.234 9.726-.248 2.18-.851 5.828-1.34 8.105-.489 2.276-1.681 6.412-2.656 9.186-.97 2.774-2.937 7.312-4.37 10.086-1.432 2.774-3.882 6.989-5.448 9.366-1.563 2.378-4.473 6.315-6.464 8.75-1.988 2.432-3.659 4.375-3.717 4.324-.052-.06.691-1.727 1.658-3.707a317 317 0 0 0 3.767-8.106c1.108-2.475 2.713-6.286 3.565-8.465.848-2.179 2.234-6.232 3.079-9.006.844-2.773 1.879-6.664 2.299-8.645.417-1.981.982-4.9 1.253-6.484.306-1.776.49-6.132.486-11.348-.004-6.394-.169-9.344-.673-12.068-.363-1.98-1.008-4.899-1.436-6.484-.424-1.585-1.291-4.34-1.929-6.124s-1.356-3.454-1.601-3.714c-.352-.378-1.659.332-6.553 3.563-3.362 2.219-6.777 4.539-7.587 5.155-.96.728-8.942 6.62-9.533 7.008-.108.071-1.837 1.108-3.318 2.278-1.788 1.412-5.319 4.529-7.844 6.928-2.529 2.395-5.857 5.9-7.396 7.781-1.536 1.88-3.587 4.95-4.351 6.125-.768 1.17-1.337 2.127-1.427 1.71-.061-.285.51-2.63 1.167-4.413s2.059-4.784 3.117-6.664c1.059-1.88 2.755-4.558 3.775-5.944 1.016-1.387 2.953-3.819 4.298-5.404 1.345-1.581 4.188-4.365 9.57-9.785.5-.5 9.754-8.282 11.507-9.624a227 227 0 0 1 7.259-5.292c2.1-1.459 4.419-2.852 5.157-3.098.737-.245 2.155-.454 3.152-.464M422.879 32c.997-.004 2.419.187 3.152.42.734.235 2.628 1.237 4.202 2.227 1.578.991 5.315 3.56 8.31 5.703 2.647 1.897 4.922 3.46 5.473 3.762.104.058 9.224 7.128 12.484 10.388 3 3 4.81 5 6.5 7 1.589 1.88 3.941 5 5.441 7.5.985 1.642 1.181 2 2.576 4.614.634 1.19 1.688 3.581 2.345 5.314.654 1.732 1.192 3.436 1.2 3.782.007.345-.822-.587-1.845-2.071-1.024-1.488-2.946-4-4.276-5.584-1.329-1.585-4.412-4.748-6.853-7.025-2.441-2.276-6.113-5.439-8.164-7.024C451.377 59.422 442.09 52.9 442 53c-.008-.005-.856-.574-1.035-.73-.398-.346-4.279-2.9-8.622-5.673-5.008-3.198-8.019-4.91-8.234-4.684-.183.198-.955 1.982-1.711 3.963s-1.792 5.144-2.296 7.024c-.505 1.88-1.2 5.123-1.547 7.206-.398 2.384-.642 6.109-.661 10.086-.016 3.468.191 7.846.455 9.726.267 1.88.828 5.043 1.249 7.024.42 1.982 1.341 5.549 2.048 7.926.703 2.378 1.99 6.189 2.857 8.465a190 190 0 0 0 3.423 8.285c1.016 2.277 2.984 6.413 4.371 9.187 1.386 2.773 2.433 5.081 2.33 5.133-.107.05-1.498-1.409-3.095-3.243-1.593-1.833-4.614-5.763-6.712-8.735s-4.993-7.672-6.437-10.446-3.259-6.664-4.03-8.646c-.772-1.981-1.885-5.386-2.473-7.565s-1.368-5.908-1.731-8.285c-.385-2.536-.653-6.48-.649-9.546.004-2.871.283-7.09.627-9.366.34-2.277 1.657-8.034 2.926-12.789 1.268-4.754 2.743-9.534 3.274-10.626.527-1.092 1.342-2.364 1.8-2.829.458-.46 1.31-1.07 1.887-1.35.577-.278 1.868-.508 2.865-.512"/><path fill="#fff" d="M283.5 236h-4.55v-49h4.55l17.99 42.42L319.48 187h4.55v49h-4.55v-39.06L303.38 236h-3.78l-16.1-39.27zm83.962-17.92c0 1.12-.07 1.89-.14 3.01h-25.76c0 7.21 4.34 11.76 11.2 11.76 4.83 0 8.33-2.24 9.73-5.81h4.55c-1.26 5.81-7 9.8-14.28 9.8-9.59 0-15.75-6.65-15.75-16.8s6.23-16.73 15.47-16.73c8.96 0 14.98 6.16 14.98 14.77m-25.9-.56h21.49c-.07-6.3-3.99-10.57-10.57-10.57-6.37 0-10.5 4.34-10.92 10.57m63.823-6.44V187h4.41v49h-4.41v-6.86c-2.03 4.55-6.86 7.7-12.53 7.7-10.08 0-15.96-7.28-15.96-16.73s6.16-16.8 16.03-16.8c5.88 0 10.43 3.08 12.46 7.77m-12.04 21.7c7.77 0 12.25-5.88 12.25-12.67 0-6.93-4.48-12.74-12.25-12.74-7.35 0-11.97 5.46-11.97 12.74 0 7.21 4.62 12.67 11.97 12.67m34.079-35.07c-2.45 0-4.13-1.82-4.13-4.13 0-2.38 1.68-4.2 4.13-4.2s4.2 1.82 4.2 4.2c0 2.31-1.75 4.13-4.2 4.13m2.24 38.29h-4.48v-31.85h4.48zm27.625-3.71c1.26 0 3.22-.14 4.27-.42v3.99c-1.19.35-3.29.56-5.18.56-3.99 0-9.17-.91-9.17-10.78V208h-6.23v-3.85h6.23v-10.64h4.41v10.64h8.82V208h-8.82v16.73c0 6.65 2.45 7.56 5.67 7.56m49.539 3.71h-5.11l-2.87-8.82h-21.7l-2.8 8.82h-5.11l16.66-49h4.27zm-18.83-42.63-9.45 29.54h18.97zm42.718 43.47c-9.66 0-15.82-6.86-15.82-16.73s6.16-16.73 15.82-16.73c8.4 0 13.86 4.55 14.7 11.55h-4.55c-.84-4.9-4.55-7.49-10.15-7.49-7 0-11.34 4.9-11.34 12.67 0 7.7 4.34 12.67 11.34 12.67 5.6 0 9.31-2.66 10.15-7.35h4.55c-.84 6.86-6.3 11.41-14.7 11.41m39.388-4.55c1.26 0 3.22-.14 4.27-.42v3.99c-1.19.35-3.29.56-5.18.56-3.99 0-9.17-.91-9.17-10.78V208h-6.23v-3.85h6.23v-10.64h4.41v10.64h8.82V208h-8.82v16.73c0 6.65 2.45 7.56 5.67 7.56m18.389-34.58c-2.45 0-4.13-1.82-4.13-4.13 0-2.38 1.68-4.2 4.13-4.2s4.2 1.82 4.2 4.2c0 2.31-1.75 4.13-4.2 4.13m2.24 38.29h-4.48v-31.85h4.48zm28.184 0h-3.71l-14.35-31.85h4.83l11.34 25.83 11.41-25.83h4.83zm50.896-17.92c0 1.12-.07 1.89-.14 3.01h-25.76c0 7.21 4.34 11.76 11.2 11.76 4.83 0 8.33-2.24 9.73-5.81h4.55c-1.26 5.81-7 9.8-14.28 9.8-9.59 0-15.75-6.65-15.75-16.8s6.23-16.73 15.47-16.73c8.96 0 14.98 6.16 14.98 14.77m-25.9-.56h21.49c-.07-6.3-3.99-10.57-10.57-10.57-6.37 0-10.5 4.34-10.92 10.57"/><path fill="#fff" fill-opacity=".6" d="M296.465 272.128v-12.561h4.558v24.91c0 3.869-1.166 6.837-3.286 8.798-1.961 1.696-4.664 2.65-8.003 2.65-3.498 0-6.36-.901-8.268-2.544-1.749-1.484-2.703-3.604-2.756-6.307h4.611c.212 2.968 1.802 4.982 6.36 4.982 4.134 0 6.784-2.332 6.784-7.897v-4.558c-1.431 2.968-4.346 4.982-8.48 4.982-6.36 0-9.275-4.24-9.275-10.441v-14.575h4.558v13.621c0 4.346 1.431 7.314 6.254 7.314 4.717 0 6.943-3.975 6.943-8.374m23.34 12.508c-7.95 0-12.72-5.724-12.72-12.826 0-7.155 4.77-12.879 12.72-12.879 7.897 0 12.72 5.724 12.72 12.879 0 7.102-4.823 12.826-12.72 12.826m0-4.134c5.141 0 8.109-3.816 8.109-8.692 0-4.929-2.968-8.745-8.109-8.745s-8.162 3.816-8.162 8.745c0 4.876 3.021 8.692 8.162 8.692m27.65 4.134c-5.459 0-9.275-3.286-9.275-10.017v-15.052h4.611v13.992c0 4.293 1.59 7.102 5.936 7.102 5.035 0 6.943-3.816 6.943-7.738v-13.356h4.611V284h-4.611v-4.452c-1.325 3.021-4.187 5.088-8.215 5.088m25.361-.636h-4.611v-24.433h4.611v5.565c.954-4.134 4.081-5.936 7.155-5.936.848 0 1.643.053 2.226.212v4.24c-.795-.159-1.431-.159-2.279-.159-4.823 0-7.102 4.399-7.102 9.858zm30.172-28.62c-2.226 0-3.763-1.643-3.763-3.71s1.537-3.763 3.763-3.763c2.173 0 3.71 1.696 3.71 3.763s-1.537 3.71-3.71 3.71m2.279 28.62h-4.558v-24.433h4.558zm12.579 0h-4.611v-24.433h4.611v4.505c1.325-3.127 4.293-5.141 8.533-5.141 5.989 0 9.063 3.498 9.063 10.017V284h-4.558v-13.038c0-5.459-1.802-8.056-6.148-8.056-4.558 0-6.89 3.233-6.89 8.162zm29.916 0h-4.611v-24.433h4.611v4.505c1.325-3.127 4.293-5.141 8.533-5.141 5.989 0 9.063 3.498 9.063 10.017V284H460.8v-13.038c0-5.459-1.802-8.056-6.148-8.056-4.558 0-6.89 3.233-6.89 8.162zm46.929-13.568c0 .901 0 1.59-.106 2.703h-18.921c.106 4.717 3.021 7.473 7.685 7.473 3.233 0 5.459-1.272 6.466-3.604h4.611c-.848 4.505-5.353 7.632-11.077 7.632-7.526 0-12.243-4.982-12.243-12.879 0-7.738 4.77-12.826 12.031-12.826 6.89 0 11.554 4.77 11.554 11.501m-19.027-.848h14.522c0-4.293-2.65-6.943-7.102-6.943s-7.208 2.809-7.42 6.943M505.316 284h-4.611v-24.433h4.611v5.565c.954-4.134 4.081-5.936 7.155-5.936.848 0 1.643.053 2.226.212v4.24c-.795-.159-1.431-.159-2.279-.159-4.823 0-7.102 4.399-7.102 9.858zm41.461-25.069c6.996 0 11.819 5.247 11.819 12.879 0 7.473-5.035 12.826-12.084 12.826-3.763 0-7.155-1.908-8.745-4.929v15.582h-4.558v-35.722h4.558v4.346c1.59-3.074 5.088-4.982 9.01-4.982m-.901 21.571c4.717 0 8.109-3.604 8.109-8.692s-3.392-8.745-8.109-8.745c-4.876 0-8.321 3.604-8.321 8.745 0 5.088 3.445 8.692 8.321 8.692m29.406 4.134c-7.95 0-12.72-5.724-12.72-12.826 0-7.155 4.77-12.879 12.72-12.879 7.897 0 12.72 5.724 12.72 12.879 0 7.102-4.823 12.826-12.72 12.826m0-4.134c5.141 0 8.109-3.816 8.109-8.692 0-4.929-2.968-8.745-8.109-8.745s-8.162 3.816-8.162 8.745c0 4.876 3.021 8.692 8.162 8.692M602.111 284h-3.869l-9.01-24.433h5.035l5.83 17.861 5.989-17.861h4.929l5.936 17.861 5.883-17.861h5.035L618.859 284h-3.922l-6.413-18.762zm50.648-13.568c0 .901 0 1.59-.106 2.703h-18.921c.106 4.717 3.021 7.473 7.685 7.473 3.233 0 5.459-1.272 6.466-3.604h4.611c-.848 4.505-5.353 7.632-11.077 7.632-7.526 0-12.243-4.982-12.243-12.879 0-7.738 4.77-12.826 12.031-12.826 6.89 0 11.554 4.77 11.554 11.501m-19.027-.848h14.522c0-4.293-2.65-6.943-7.102-6.943s-7.208 2.809-7.42 6.943M663.385 284h-4.611v-24.433h4.611v5.565c.954-4.134 4.081-5.936 7.155-5.936.848 0 1.643.053 2.226.212v4.24c-.795-.159-1.431-.159-2.279-.159-4.823 0-7.102 4.399-7.102 9.858z"/><path fill="#fff" d="M63.32 579.2h-9.336v-1.632h9.336zm3.264 4.8H64.64l-6.36-16.056h.816L52.736 584h-1.872l6.864-17.16h1.992zM193.231 475.043h-13.12v-1.984h13.12zm-5.568 5.568h-1.984v-13.12h1.984zM462.428 475.043h-13.12v-1.984h13.12zm-5.568 5.568h-1.984v-13.12h1.984zM740.012 475.043h-13.12v-1.984h13.12zm-5.568 5.568h-1.984v-13.12h1.984zM328.472 582.56h-1.392l-6.912-14.448h.624V584h-1.8v-17.16h2.424l6.96 14.592h-1.152l6.96-14.592h2.376V584h-1.8v-15.888h.624zM508.528 566.84v10.392q0 3.384-1.824 5.28-1.824 1.872-5.04 1.872-3.192 0-5.04-1.872-1.824-1.896-1.824-5.28V566.84h1.848v10.392q0 2.664 1.32 4.08 1.32 1.392 3.696 1.392 2.4 0 3.72-1.392 1.32-1.416 1.32-4.08V566.84zm9.16 17.544q-1.8 0-3.216-.816a6 6 0 0 1-2.232-2.232q-.792-1.416-.792-3.24t.792-3.24a6 6 0 0 1 2.232-2.232q1.416-.816 3.216-.816 1.824 0 3.216.816a5.8 5.8 0 0 1 2.208 2.232q.816 1.416.816 3.24t-.816 3.24a5.8 5.8 0 0 1-2.208 2.232q-1.392.816-3.216.816m0-1.56q1.296 0 2.28-.6a4.15 4.15 0 0 0 1.536-1.656q.552-1.08.552-2.472t-.552-2.448a4.1 4.1 0 0 0-1.536-1.68q-.984-.6-2.28-.6t-2.28.6a4.1 4.1 0 0 0-1.536 1.68q-.552 1.056-.552 2.448t.552 2.472q.552 1.056 1.536 1.656t2.28.6M545.655 584h-1.776v-6.816q0-1.896-.816-2.856-.792-.96-2.136-.96a3.5 3.5 0 0 0-1.872.552q-.888.552-1.44 1.728-.528 1.176-.528 3.048V584h-1.776v-6.816q0-1.896-.816-2.856-.792-.96-2.136-.96a3.5 3.5 0 0 0-1.872.552q-.888.552-1.44 1.728-.528 1.176-.528 3.048V584h-1.776v-11.808h1.752v3.024l-.192-.024q.336-1.248 1.008-1.968.672-.744 1.536-1.08a5.1 5.1 0 0 1 1.824-.336q1.656 0 2.712.936 1.08.912 1.392 2.664l-.312.024q.336-1.296 1.032-2.088a4.2 4.2 0 0 1 1.656-1.176q.96-.36 1.968-.36 2.136 0 3.336 1.344 1.2 1.32 1.2 3.84zm8.877.384q-1.8 0-3.216-.816a6 6 0 0 1-2.232-2.232q-.792-1.416-.792-3.24t.792-3.24a6 6 0 0 1 2.232-2.232q1.416-.816 3.216-.816 1.824 0 3.216.816a5.8 5.8 0 0 1 2.208 2.232q.816 1.416.816 3.24t-.816 3.24a5.8 5.8 0 0 1-2.208 2.232q-1.392.816-3.216.816m0-1.56q1.296 0 2.28-.6a4.15 4.15 0 0 0 1.536-1.656q.552-1.08.552-2.472t-.552-2.448a4.1 4.1 0 0 0-1.536-1.68q-.984-.6-2.28-.6t-2.28.6a4.1 4.1 0 0 0-1.536 1.68q-.552 1.056-.552 2.448t.552 2.472q.552 1.056 1.536 1.656t2.28.6m22.982-1.896 1.272 1.176a5.9 5.9 0 0 1-2.064 1.68q-1.224.6-2.784.6-1.8 0-3.216-.816a6.03 6.03 0 0 1-2.208-2.232q-.792-1.416-.792-3.24t.792-3.24a6 6 0 0 1 2.232-2.232q1.416-.816 3.216-.816 1.56 0 2.784.624 1.224.6 2.04 1.656l-1.272 1.176a4.35 4.35 0 0 0-1.44-1.368q-.864-.528-2.112-.528-1.296 0-2.28.6a4.1 4.1 0 0 0-1.536 1.68q-.552 1.056-.552 2.448t.552 2.472q.552 1.056 1.536 1.656t2.28.6q1.248 0 2.112-.504a4.6 4.6 0 0 0 1.44-1.392M592.176 584H590.4v-6.816q0-1.896-.864-2.856t-2.328-.96q-1.056 0-1.992.552t-1.512 1.728-.576 3.048V584h-1.776v-17.28h1.776v9.048h-.312q.288-1.464.984-2.328a4.03 4.03 0 0 1 1.656-1.248 5.6 5.6 0 0 1 2.064-.384q2.16 0 3.408 1.344 1.248 1.32 1.248 3.84zm13.176-3.36 1.248 1.176a6.9 6.9 0 0 1-2.256 1.896q-1.32.672-3.024.672-1.872 0-3.36-.816a6.06 6.06 0 0 1-2.304-2.232q-.84-1.416-.84-3.24t.792-3.24a6 6 0 0 1 2.232-2.232q1.416-.816 3.216-.816 1.728 0 3.048.816a5.66 5.66 0 0 1 2.112 2.184q.768 1.392.768 3.216v.144h-1.824v-.144q0-1.392-.552-2.424-.528-1.056-1.464-1.632-.912-.6-2.088-.6-1.296 0-2.28.6t-1.536 1.656-.552 2.448.6 2.472 1.632 1.68q1.056.6 2.424.6 2.496 0 4.008-2.184m1.632-1.92h-10.68v-1.464H606.6l.384.768zm26.397 5.28h-1.776v-6.816q0-1.896-.816-2.856-.792-.96-2.136-.96a3.5 3.5 0 0 0-1.872.552q-.888.552-1.44 1.728-.528 1.176-.528 3.048V584h-1.776v-6.816q0-1.896-.816-2.856-.792-.96-2.136-.96a3.5 3.5 0 0 0-1.872.552q-.888.552-1.44 1.728-.528 1.176-.528 3.048V584h-1.776v-11.808h1.752v3.024l-.192-.024q.336-1.248 1.008-1.968.672-.744 1.536-1.08a5.1 5.1 0 0 1 1.824-.336q1.656 0 2.712.936 1.08.912 1.392 2.664l-.312.024q.336-1.296 1.032-2.088a4.2 4.2 0 0 1 1.656-1.176q.96-.36 1.968-.36 2.136 0 3.336 1.344 1.2 1.32 1.2 3.84zm13.174-3.36 1.248 1.176a6.9 6.9 0 0 1-2.256 1.896q-1.32.672-3.024.672-1.872 0-3.36-.816a6.06 6.06 0 0 1-2.304-2.232q-.84-1.416-.84-3.24t.792-3.24a6 6 0 0 1 2.232-2.232q1.416-.816 3.216-.816 1.728 0 3.048.816a5.66 5.66 0 0 1 2.112 2.184q.768 1.392.768 3.216v.144h-1.824v-.144q0-1.392-.552-2.424-.528-1.056-1.464-1.632-.912-.6-2.088-.6-1.296 0-2.28.6t-1.536 1.656-.552 2.448.6 2.472 1.632 1.68q1.056.6 2.424.6 2.496 0 4.008-2.184m1.632-1.92h-10.68v-1.464h10.296l.384.768zm14.63 5.28h-1.752v-3.216l-.024-.024v-2.304q0-1.512-.552-2.64-.552-1.152-1.56-1.8-.984-.648-2.28-.648-1.272 0-2.256.624a4.1 4.1 0 0 0-1.536 1.68q-.552 1.056-.552 2.424t.552 2.448a4.5 4.5 0 0 0 1.56 1.68q1.008.6 2.304.6 1.224 0 2.208-.504a4.3 4.3 0 0 0 1.632-1.392 4.2 4.2 0 0 0 .72-2.04l.336.48q.192 1.416-.432 2.568-.624 1.128-1.848 1.8-1.2.648-2.808.648-1.776 0-3.168-.816a5.9 5.9 0 0 1-2.16-2.232q-.768-1.416-.768-3.24 0-1.8.768-3.216a5.97 5.97 0 0 1 2.136-2.232q1.368-.84 3.096-.84 1.296 0 2.352.504 1.08.48 1.8 1.368a4.34 4.34 0 0 1 .912 2.088h-.456v-9.048h1.776zm5.131 0h-1.776v-11.808h1.776zm-.888-14.976q-.528 0-.912-.36a1.25 1.25 0 0 1-.384-.912q0-.552.384-.912.384-.384.912-.384.552 0 .912.384.384.36.384.912 0 .528-.384.912-.36.36-.912.36M678.193 584h-2.784q-1.248 0-1.944-.672-.672-.696-.672-1.944v-12.648h1.776v12.504q0 .576.312.912.312.312.912.312h2.4zm-.168-10.296h-7.68v-1.512h7.68zM690.711 584h-1.704v-2.304l-.024-.672v-4.416q0-1.488-.96-2.376t-2.592-.888q-1.176 0-2.136.504a5.6 5.6 0 0 0-1.656 1.368l-1.248-1.2a7.2 7.2 0 0 1 2.208-1.632q1.248-.576 2.832-.576t2.76.6q1.2.576 1.848 1.632.672 1.056.672 2.496zm-6.216.384q-1.344 0-2.376-.48-1.008-.504-1.584-1.344-.552-.84-.552-1.92 0-1.248.696-2.112.696-.888 1.896-1.344 1.224-.456 2.76-.456h3.888v1.44h-3.648q-1.608 0-2.688.6-1.056.576-1.056 1.824 0 1.056.792 1.68t2.088.624q1.248 0 2.256-.48a4.1 4.1 0 0 0 1.608-1.392 3.9 3.9 0 0 0 .696-2.04l.72.408q0 1.44-.72 2.568-.696 1.128-1.944 1.776t-2.832.648M807.888 584h-1.848v-17.16h10.872v1.632h-9.024zm8.568-7.968h-8.808V574.4h8.808zm4.875 7.968h-1.776v-11.808h1.776zm-.888-14.976q-.528 0-.912-.36a1.25 1.25 0 0 1-.384-.912q0-.552.384-.912.384-.384.912-.384.552 0 .912.384.384.36.384.912 0 .528-.384.912-.36.36-.912.36m9.933 15.36q-1.8 0-3.216-.816a6 6 0 0 1-2.232-2.232q-.792-1.416-.792-3.24t.792-3.24a6 6 0 0 1 2.232-2.232q1.416-.816 3.216-.816 1.824 0 3.216.816a5.8 5.8 0 0 1 2.208 2.232q.816 1.416.816 3.24t-.816 3.24a5.8 5.8 0 0 1-2.208 2.232q-1.392.816-3.216.816m0-1.56q1.296 0 2.28-.6a4.15 4.15 0 0 0 1.536-1.656q.552-1.08.552-2.472t-.552-2.448a4.1 4.1 0 0 0-1.536-1.68q-.984-.6-2.28-.6t-2.28.6a4.1 4.1 0 0 0-1.536 1.68q-.552 1.056-.552 2.448t.552 2.472q.552 1.056 1.536 1.656t2.28.6M845.766 572v1.728h-.48q-1.056 0-1.992.552t-1.512 1.728-.576 3.048V584h-1.776v-11.808h1.752v3.744h-.312q.288-1.44 1.008-2.304t1.656-1.248a5.3 5.3 0 0 1 1.968-.384zm18.926 12h-1.752v-3.216l-.024-.024v-2.304q0-1.512-.552-2.64-.552-1.152-1.56-1.8-.984-.648-2.28-.648-1.272 0-2.256.624a4.1 4.1 0 0 0-1.536 1.68q-.552 1.056-.552 2.424t.552 2.448a4.5 4.5 0 0 0 1.56 1.68q1.008.6 2.304.6 1.224 0 2.208-.504a4.3 4.3 0 0 0 1.632-1.392 4.2 4.2 0 0 0 .72-2.04l.336.48q.192 1.416-.432 2.568-.624 1.128-1.848 1.8-1.2.648-2.808.648-1.776 0-3.168-.816a5.9 5.9 0 0 1-2.16-2.232q-.768-1.416-.768-3.24 0-1.8.768-3.216a5.97 5.97 0 0 1 2.136-2.232q1.368-.84 3.096-.84 1.296 0 2.352.504 1.08.48 1.8 1.368a4.34 4.34 0 0 1 .912 2.088h-.456v-9.048h1.776zm5.131 0h-1.776v-11.808h1.776zm-.888-14.976q-.528 0-.912-.36a1.25 1.25 0 0 1-.384-.912q0-.552.384-.912.384-.384.912-.384.552 0 .912.384.384.36.384.912 0 .528-.384.912-.36.36-.912.36M879.644 584h-1.776v-17.28h1.776zm9.044.384q-1.8 0-3.216-.816a6 6 0 0 1-2.232-2.232q-.792-1.416-.792-3.24t.792-3.24a6 6 0 0 1 2.232-2.232q1.416-.816 3.216-.816 1.824 0 3.216.816a5.8 5.8 0 0 1 2.208 2.232q.816 1.416.816 3.24t-.816 3.24a5.8 5.8 0 0 1-2.208 2.232q-1.392.816-3.216.816m0-1.56q1.296 0 2.28-.6a4.15 4.15 0 0 0 1.536-1.656q.552-1.08.552-2.472t-.552-2.448a4.1 4.1 0 0 0-1.536-1.68q-.984-.6-2.28-.6t-2.28.6a4.1 4.1 0 0 0-1.536 1.68q-.552 1.056-.552 2.448t.552 2.472q.552 1.056 1.536 1.656t2.28.6M904.162 584h-2.784q-1.248 0-1.944-.672-.672-.696-.672-1.944v-12.648h1.776v12.504q0 .576.312.912.312.312.912.312h2.4zm-.168-10.296h-7.68v-1.512h7.68zm8.132 10.68q-1.8 0-3.216-.816a6 6 0 0 1-2.232-2.232q-.792-1.416-.792-3.24t.792-3.24a6 6 0 0 1 2.232-2.232q1.416-.816 3.216-.816 1.824 0 3.216.816a5.8 5.8 0 0 1 2.208 2.232q.816 1.416.816 3.24t-.816 3.24a5.8 5.8 0 0 1-2.208 2.232q-1.392.816-3.216.816m0-1.56q1.296 0 2.28-.6a4.15 4.15 0 0 0 1.536-1.656q.552-1.08.552-2.472t-.552-2.448a4.1 4.1 0 0 0-1.536-1.68q-.984-.6-2.28-.6t-2.28.6a4.1 4.1 0 0 0-1.536 1.68q-.552 1.056-.552 2.448t.552 2.472q.552 1.056 1.536 1.656t2.28.6"/><path fill="#fff" fill-opacity=".2" fill-rule="evenodd" d="M805.805 479.115c1.156.068 3.434.235 5.064.373 1.63.14 3.91.373 5.063.519 1.514.194 2.581.496 3.829 1.09 1.183.561 2.314 1.377 3.589 2.581 1.022.969 2.368 2.494 2.988 3.391a62 62 0 0 1 1.598 2.403c.465.766.465.78-.024 1.116-.272.186-1.104.563-1.853.841-1.121.414-1.877.503-4.322.507-2.176.003-3.392-.114-4.57-.433a43 43 0 0 1-3.458-1.162c-1.017-.396-2.796-1.309-3.952-2.026-1.153-.715-2.82-2.031-3.705-2.921-.881-.892-2.022-2.371-2.531-3.291s-.941-1.823-.959-2.007c-.019-.187.23-.508.556-.72.474-.307.996-.356 2.687-.261m110.635.147c1.186-.002 1.986.105 2.186.291.171.163.311.531.309.82s-.277 1.022-.61 1.63a22 22 0 0 1-1.109 1.805c-.277.384-1.089 1.26-1.803 1.95-.714.687-1.966 1.7-2.781 2.254-.816.552-2.317 1.367-3.335 1.807-1.02.443-2.63.997-3.581 1.232-1.183.291-2.549.422-4.323.41-2.062-.014-2.897-.123-4.075-.542-.815-.292-1.65-.667-1.853-.834-.323-.266-.18-.596 1.112-2.581.815-1.25 2.26-3.025 3.211-3.945 1.022-.988 2.284-1.931 3.087-2.31.746-.354 2.08-.778 2.964-.944.882-.165 3.162-.424 5.064-.573 1.901-.151 3.505-.316 3.561-.37s.946-.098 1.976-.1m-28.755 13.385c1.494.044 3.606.256 4.693.47 1.087.217 2.63.671 3.433 1.016.8.342 1.788.987 2.193 1.437.615.68.722.971.635 1.746-.059.513-.405 1.323-.775 1.805-.368.48-1.198 1.239-1.843 1.686-.645.445-2.117 1.277-3.273 1.845-1.156.566-3.49 1.553-5.187 2.192-1.699.638-4.366 1.534-5.928 1.988a147 147 0 0 1-6.298 1.642c-1.902.445-5.57 1.237-8.151 1.759-2.581.519-5.081.945-5.557.945-.477-.002-3.643-.521-7.04-1.157-3.396-.634-7.454-1.465-9.015-1.842-1.561-.38-4.369-1.172-6.237-1.759-1.867-.587-4.535-1.546-5.928-2.128-1.393-.585-3.309-1.514-4.26-2.069s-2.26-1.572-2.91-2.259-1.242-1.565-1.316-1.949-.072-.988.007-1.339c.079-.352.454-.929.832-1.281.381-.352 1.216-.876 1.853-1.165.64-.288 1.857-.682 2.707-.878s2.655-.419 4.014-.5c1.521-.089 3.275-.033 4.569.146 1.153.161 3.265.601 4.693.983 1.425.38 4.15 1.272 6.051 1.982 1.902.71 5.237 2.068 7.41 3.016 2.174.95 4.063 1.726 4.199 1.726s1.914-.745 3.952-1.658a232 232 0 0 1 6.175-2.658 97 97 0 0 1 4.693-1.735 63 63 0 0 1 4.199-1.211c1.087-.258 2.589-.561 3.334-.673s2.582-.165 4.076-.123m-25.688-22.41c1.892.061 2.46.177 3.829.799a8.7 8.7 0 0 1 2.783 1.975c.647.687 1.388 1.772 1.645 2.413s.546 1.688.64 2.329c.101.678.047 1.749-.126 2.562-.165.768-.593 1.909-.953 2.536-.361.626-1.211 1.605-1.89 2.171-.679.568-1.679 1.229-2.223 1.469-.543.242-1.655.538-2.47.659-.896.133-2.042.138-2.902.012-.781-.117-1.949-.44-2.593-.724-.645-.282-1.794-1.095-2.552-1.805-.978-.913-1.546-1.698-1.949-2.688-.405-.997-.57-1.898-.578-3.144-.005-1.055.156-2.208.41-2.911.232-.641.806-1.663 1.277-2.271.475-.608 1.22-1.365 1.663-1.684.442-.317 1.469-.843 2.284-1.171 1.29-.52 1.771-.587 3.705-.527" clip-rule="evenodd"/><path fill="#fff" d="M918.626 479.553c-.2-.186-1-.293-2.186-.291-1.03.002-1.919.047-1.976.1s-1.66.219-3.561.37c-1.902.149-4.182.408-5.064.573-.884.166-2.218.59-2.964.944-.803.379-2.065 1.322-3.087 2.31-.951.92-2.396 2.695-3.211 3.945-1.292 1.985-1.435 2.315-1.112 2.581.203.167 1.038.542 1.853.834 1.178.419 2.013.528 4.075.542 1.774.012 3.14-.119 4.323-.41.951-.235 2.561-.789 3.581-1.232 1.018-.44 2.519-1.255 3.335-1.807a26 26 0 0 0 2.781-2.254c.714-.69 1.526-1.566 1.803-1.95s.775-1.197 1.109-1.805.607-1.341.61-1.63c.002-.289-.138-.657-.309-.82M810.869 479.488c-1.63-.138-3.908-.305-5.064-.373-1.691-.095-2.213-.046-2.687.261-.326.212-.575.533-.556.72.018.184.45 1.087.959 2.007s1.65 2.399 2.531 3.291c.885.89 2.552 2.206 3.705 2.921 1.156.717 2.935 1.63 3.952 2.026 1.02.398 2.577.92 3.458 1.162 1.178.319 2.394.436 4.57.433 2.445-.004 3.201-.093 4.322-.507.749-.278 1.581-.655 1.853-.841.489-.336.489-.35.024-1.116a62 62 0 0 0-1.598-2.403c-.62-.897-1.966-2.422-2.988-3.391-1.275-1.204-2.406-2.02-3.589-2.581-1.248-.594-2.315-.896-3.829-1.09a157 157 0 0 0-5.063-.519M861.66 409.029c.408-.01 1.159.086 1.667.214.509.126 1.388.624 1.951 1.104s2.387 2.811 4.051 5.182c1.665 2.368 3.948 5.827 5.074 7.685 1.126 1.856 2.791 4.845 3.7 6.638s1.971 4.071 2.361 5.063c.21.534.432 1.014.613 1.343.181.33.504 1.087.546 1.217.999 3.154 1.808 5.495 2.417 8.037l.183.759c.415 1.731.944 4.456 1.176 6.056.306 2.098.427 4.572.435 8.85.007 5.154-.059 6.246-.509 8.268-.284 1.281-.892 3.614-1.346 5.184-.457 1.57-.902 2.776-.991 2.678-.086-.098-.212-2.587-.281-5.533-.092-4.01-.287-6.47-.776-9.782-.36-2.434-.926-5.683-1.26-7.22a91 91 0 0 0-1.484-5.706 87 87 0 0 0-.265-.855c-.855-2.978-1.825-5.241-2.864-7.773l-.85-2.027c-.632-1.504-1.892-4.204-2.799-5.997a126 126 0 0 0-3.386-6.172 159 159 0 0 0-3.445-5.473c-.941-1.409-2.152-3.16-2.691-3.892s-1.091-1.301-1.227-1.266-1.057 1.209-2.05 2.61a162 162 0 0 0-3.579 5.343c-.978 1.537-2.843 4.786-4.142 7.22-1.302 2.433-2.875 5.577-3.5 6.986-.539 1.214-1.04 2.452-1.219 2.997-.783 1.88-1.457 3.497-2.051 5.504.004-.004-.014-.003 0 0-.057.065-.388 1.035-.734 2.155-.348 1.12-.901 3.111-1.232 4.425a95 95 0 0 0-1.099 5.182c-.275 1.537-.682 4.525-.91 6.638-.224 2.112-.479 6.034-.726 13.585L839 474.95c-.598-1.909-.918-4.48-1.128-5.505-.272-1.346-.383-3.482-.398-7.686-.012-3.533.109-6.784.306-8.267.178-1.347.663-4.069 1.075-6.056.137-.658.278-1.302.407-1.88.363-1.616.795-3.269 1.307-5.172a30 30 0 0 1 1.409-4.003c.184-.43.422-1.009.671-1.638a133 133 0 0 1 2.136-5.007c.67-1.474 1.635-3.412 2.147-4.309.511-.896 1.627-2.678 2.48-3.959.852-1.281 2.638-3.796 3.969-5.59 1.331-1.793 2.961-3.824 3.621-4.513.659-.689 1.511-1.411 1.894-1.607.38-.196.991-.436 1.359-.534a7.6 7.6 0 0 1 1.405-.195"/><path fill="#fff" d="M894.092 429.731c.645-.005 1.507.146 1.914.339s1.013.69 1.344 1.107.937 1.754 1.347 2.97c.407 1.215 1.185 3.994 1.726 6.171.544 2.178 1.165 4.903 1.38 6.056.218 1.153.463 3.773.544 5.822.089 2.297.032 4.709-.151 6.288a66 66 0 0 1-.866 5.241c-.317 1.471-1.087 4.145-1.717 5.938-.628 1.793-1.9 4.728-2.826 6.522-.927 1.793-2.509 4.517-3.522 6.054-1.01 1.537-2.893 4.083-4.18 5.658-1.284 1.571-2.364 2.827-2.402 2.794-.034-.037.447-1.115 1.071-2.396a203 203 0 0 0 2.436-5.24c.716-1.6 1.754-4.064 2.305-5.473.548-1.409 1.444-4.029 1.99-5.822s1.215-4.309 1.487-5.59c.269-1.281.634-3.168.81-4.192.197-1.149.317-3.964.314-7.336-.002-4.134-.109-6.042-.435-7.802-.235-1.281-.651-3.168-.928-4.193a62 62 0 0 0-1.248-3.959c-.412-1.152-.876-2.232-1.034-2.401-.228-.244-1.074.214-4.238 2.303-2.173 1.434-4.38 2.934-4.904 3.333-.621.471-5.782 4.28-6.164 4.531l-.739.47c-.408.268-.928.625-1.406 1.003-1.156.913-3.438 2.927-5.071 4.478-1.635 1.549-3.787 3.816-4.782 5.032-.993 1.215-2.318 3.2-2.813 3.96-.496.756-.864 1.374-.922 1.105-.04-.184.33-1.701.755-2.854.424-1.152 1.33-3.093 2.014-4.308.684-1.216 1.781-2.946 2.441-3.843a77 77 0 0 1 2.778-3.493c.87-1.023 2.708-2.822 6.187-6.326l.367-.325c1.377-1.192 6.081-5.139 7.073-5.898a149 149 0 0 1 4.693-3.421c1.358-.943 2.857-1.844 3.334-2.003.477-.158 1.394-.293 2.038-.3m-66.072-.014c.645-.002 1.564.121 2.038.272s1.699.799 2.717 1.44c1.02.64 3.437 2.301 5.373 3.686 1.497 1.074 2.81 1.981 3.353 2.323l.185.11.993.768c1.786 1.401 5.498 4.367 7.078 5.948 1.94 1.939 3.11 3.232 4.202 4.525 1.028 1.216 2.548 3.233 3.518 4.849.637 1.061.764 1.293 1.665 2.983.41.769 1.092 2.316 1.517 3.436.422 1.12.77 2.221.775 2.445s-.531-.38-1.192-1.339a58 58 0 0 0-2.765-3.61c-.86-1.025-2.852-3.07-4.431-4.542-1.578-1.472-3.952-3.517-5.278-4.541-1.282-.993-6.96-4.982-7.363-5.17l-.023-.006-.291-.198a7 7 0 0 1-.378-.274c-.256-.223-2.766-1.874-5.574-3.668-3.237-2.067-5.184-3.174-5.323-3.028-.119.128-.618 1.281-1.107 2.562a56 56 0 0 0-1.484 4.542 60 60 0 0 0-1 4.658c-.257 1.541-.415 3.949-.428 6.52-.009 2.243.124 5.074.294 6.289.173 1.216.536 3.261.808 4.541s.867 3.587 1.324 5.124a92 92 0 0 0 1.848 5.473 122 122 0 0 0 2.213 5.356 183 183 0 0 0 2.825 5.94c.896 1.792 1.573 3.284 1.507 3.318-.069.033-.969-.91-2.001-2.095-1.03-1.186-2.983-3.727-4.339-5.648s-3.228-4.96-4.162-6.754-2.107-4.309-2.606-5.59-1.218-3.481-1.598-4.89-.885-3.821-1.119-5.358c-.25-1.639-.423-4.189-.42-6.171.002-1.856.183-4.583.405-6.055.22-1.472 1.072-5.194 1.892-8.268s1.773-6.165 2.117-6.871c.34-.705.866-1.527 1.163-1.828a5.4 5.4 0 0 1 1.22-.873c.373-.179 1.208-.329 1.852-.331"/><path fill="#fff" fill-rule="evenodd" d="M538.285 478.954c1.156.067 3.433.235 5.063.372 1.631.14 3.91.373 5.064.52 1.514.193 2.581.496 3.828 1.09 1.183.561 2.315 1.376 3.589 2.58 1.023.969 2.369 2.494 2.989 3.391.622.897 1.341 1.98 1.598 2.404.464.766.464.78-.025 1.115-.272.187-1.104.564-1.852.841-1.122.415-1.877.503-4.323.508-2.176.002-3.391-.114-4.569-.434a42 42 0 0 1-3.458-1.162c-1.018-.396-2.796-1.309-3.952-2.026-1.154-.715-2.821-2.031-3.705-2.92-.882-.892-2.023-2.371-2.532-3.291s-.941-1.824-.958-2.008c-.02-.186.23-.508.556-.72.474-.307.995-.356 2.687-.26m110.635.146c1.185-.002 1.986.105 2.186.291.17.164.311.531.308.82-.002.289-.276 1.023-.61 1.631-.333.607-.832 1.42-1.109 1.805-.276.384-1.089 1.26-1.803 1.949-.714.687-1.966 1.7-2.781 2.254-.815.552-2.317 1.367-3.334 1.808-1.02.442-2.631.996-3.582 1.232-1.183.291-2.549.421-4.322.41-2.063-.014-2.898-.124-4.076-.543-.815-.291-1.65-.666-1.852-.834-.324-.265-.181-.596 1.111-2.58.815-1.251 2.26-3.026 3.211-3.946 1.023-.987 2.285-1.93 3.088-2.31.746-.354 2.079-.778 2.964-.943.881-.166 3.161-.424 5.063-.573 1.902-.152 3.505-.317 3.562-.37.057-.054.946-.098 1.976-.101m-28.756 13.385c1.495.044 3.607.256 4.693.47 1.087.217 2.631.671 3.434 1.016.8.342 1.788.987 2.193 1.437.615.68.721.971.635 1.747-.06.512-.405 1.322-.776 1.805-.368.479-1.198 1.239-1.842 1.686-.645.445-2.117 1.276-3.273 1.844-1.156.566-3.49 1.554-5.187 2.192-1.699.638-4.367 1.535-5.928 1.989a149 149 0 0 1-6.298 1.642c-1.902.445-5.57 1.236-8.151 1.758-2.581.52-5.081.946-5.558.946-.476-.003-3.643-.522-7.039-1.158-3.396-.633-7.455-1.465-9.016-1.842-1.561-.38-4.369-1.171-6.236-1.758-1.868-.587-4.535-1.547-5.928-2.129-1.393-.585-3.31-1.514-4.261-2.068-.951-.555-2.26-1.572-2.909-2.259-.65-.687-1.243-1.565-1.317-1.95-.074-.384-.072-.987.007-1.339s.455-.929.833-1.281c.38-.351 1.215-.875 1.852-1.164.64-.289 1.858-.683 2.707-.878.85-.196 2.656-.42 4.014-.501 1.522-.089 3.275-.033 4.57.147 1.153.16 3.265.601 4.692.983 1.426.379 4.15 1.271 6.052 1.981s5.236 2.069 7.41 3.017c2.173.95 4.063 1.725 4.199 1.725s1.914-.745 3.952-1.658a225 225 0 0 1 6.175-2.657 96 96 0 0 1 4.693-1.735 62 62 0 0 1 4.198-1.211c1.087-.259 2.589-.562 3.335-.674s2.581-.165 4.075-.123m-25.687-22.409c1.892.06 2.46.177 3.828.798a8.7 8.7 0 0 1 2.784 1.975c.647.687 1.388 1.773 1.645 2.413.257.641.546 1.689.64 2.329.101.678.046 1.749-.126 2.562-.166.769-.593 1.91-.954 2.536-.36.627-1.21 1.605-1.889 2.171-.68.568-1.68 1.23-2.223 1.47-.544.242-1.655.538-2.47.659-.897.132-2.043.137-2.902.011-.781-.116-1.949-.44-2.594-.724-.645-.282-1.793-1.095-2.551-1.805-.979-.913-1.547-1.698-1.949-2.688-.405-.996-.571-1.898-.578-3.144-.005-1.055.155-2.208.41-2.911.232-.64.805-1.663 1.277-2.271.474-.608 1.22-1.365 1.662-1.684.442-.316 1.47-.843 2.285-1.171 1.289-.519 1.771-.587 3.705-.526" clip-rule="evenodd"/><path fill="#fff" fill-opacity=".2" d="M594.386 409.029c.408-.01 1.159.086 1.668.214.508.126 1.387.624 1.95 1.104.564.48 2.387 2.811 4.051 5.182 1.665 2.368 3.948 5.827 5.074 7.685 1.126 1.856 2.791 4.845 3.7 6.638s1.971 4.071 2.361 5.063c.21.534.432 1.014.613 1.343.181.33.504 1.087.546 1.217.999 3.154 1.808 5.495 2.417 8.037l.183.759c.415 1.731.944 4.456 1.176 6.056.306 2.098.428 4.572.435 8.85.007 5.154-.059 6.246-.509 8.268-.284 1.281-.892 3.614-1.346 5.184-.457 1.57-.902 2.776-.991 2.678-.086-.098-.212-2.587-.281-5.533-.092-4.01-.287-6.47-.776-9.782-.36-2.434-.926-5.683-1.26-7.22a90 90 0 0 0-1.484-5.706 87 87 0 0 0-.265-.855c-.855-2.978-1.825-5.241-2.864-7.773l-.85-2.027c-.632-1.504-1.892-4.204-2.799-5.997a125 125 0 0 0-3.386-6.172 159 159 0 0 0-3.445-5.473c-.941-1.409-2.152-3.16-2.69-3.892-.539-.731-1.092-1.301-1.228-1.266s-1.057 1.209-2.05 2.61a162 162 0 0 0-3.579 5.343c-.978 1.537-2.843 4.786-4.142 7.22-1.302 2.433-2.875 5.577-3.5 6.986-.539 1.214-1.04 2.452-1.219 2.997-.783 1.88-1.457 3.497-2.051 5.504.004-.004-.014-.003 0 0-.057.065-.388 1.035-.734 2.155-.348 1.12-.901 3.111-1.232 4.425a95 95 0 0 0-1.099 5.182c-.275 1.537-.682 4.525-.91 6.638-.224 2.112-.479 6.034-.726 13.585l-1.418-3.306c-.598-1.909-.918-4.48-1.128-5.505-.272-1.346-.383-3.482-.398-7.686-.012-3.533.109-6.784.307-8.267.177-1.347.662-4.069 1.074-6.056.137-.658.278-1.302.407-1.88.363-1.616.795-3.269 1.307-5.172a30 30 0 0 1 1.41-4.003c.183-.43.421-1.009.67-1.638a132 132 0 0 1 2.137-5.007c.669-1.474 1.634-3.412 2.146-4.309.511-.896 1.627-2.678 2.48-3.959.852-1.281 2.638-3.796 3.969-5.59 1.331-1.793 2.961-3.824 3.621-4.513.659-.689 1.511-1.411 1.894-1.607.38-.196.991-.436 1.359-.534a7.6 7.6 0 0 1 1.405-.195"/><path fill="#fff" fill-opacity=".2" d="M626.819 429.73c.644-.004 1.506.147 1.914.34s1.012.69 1.343 1.107.937 1.754 1.347 2.969c.408 1.216 1.186 3.995 1.727 6.172.543 2.178 1.165 4.903 1.38 6.056.217 1.153.462 3.773.544 5.822.088 2.296.031 4.709-.152 6.288a65 65 0 0 1-.866 5.24c-.316 1.472-1.087 4.146-1.717 5.939-.627 1.793-1.9 4.728-2.826 6.521s-2.509 4.518-3.522 6.055c-1.01 1.537-2.892 4.083-4.179 5.657-1.285 1.572-2.365 2.828-2.403 2.795-.034-.038.447-1.116 1.072-2.396a199 199 0 0 0 2.435-5.241c.717-1.6 1.754-4.063 2.305-5.472.548-1.409 1.444-4.029 1.99-5.822s1.216-4.309 1.488-5.59c.269-1.281.634-3.168.809-4.193.198-1.148.317-3.964.315-7.336-.003-4.133-.11-6.041-.436-7.801-.235-1.281-.651-3.168-.928-4.193a61 61 0 0 0-1.248-3.96c-.412-1.151-.876-2.231-1.034-2.4-.227-.245-1.073.214-4.237 2.303-2.173 1.434-4.38 2.934-4.905 3.333-.621.471-5.782 4.28-6.164 4.531l-.739.47a20 20 0 0 0-1.406 1.003c-1.156.913-3.438 2.927-5.07 4.478-1.636 1.549-3.787 3.816-4.783 5.031-.993 1.216-2.318 3.201-2.812 3.96-.497.757-.865 1.375-.923 1.106-.04-.184.33-1.701.755-2.854s1.33-3.093 2.014-4.308c.685-1.216 1.781-2.947 2.441-3.843a76 76 0 0 1 2.778-3.493c.87-1.023 2.708-2.823 6.188-6.326l.366-.326c1.377-1.191 6.082-5.138 7.073-5.897a146 146 0 0 1 4.694-3.421c1.358-.943 2.856-1.844 3.334-2.003.476-.158 1.393-.294 2.038-.301m-66.073-.013c.645-.003 1.564.121 2.038.272.475.151 1.7.799 2.717 1.439 1.02.641 3.437 2.301 5.373 3.687 1.498 1.073 2.81 1.981 3.354 2.322l.184.111.994.768c1.785 1.4 5.497 4.367 7.078 5.947 1.939 1.94 3.109 3.233 4.202 4.526 1.027 1.215 2.548 3.232 3.517 4.848.637 1.062.764 1.294 1.665 2.984.41.769 1.092 2.315 1.517 3.435.422 1.121.77 2.222.775 2.446.005.223-.53-.38-1.192-1.339a58 58 0 0 0-2.765-3.61c-.859-1.025-2.852-3.071-4.43-4.542-1.579-1.472-3.952-3.517-5.279-4.541-1.282-.993-6.96-4.983-7.363-5.17l-.022-.006-.291-.199a6 6 0 0 1-.378-.273c-.257-.224-2.766-1.875-5.574-3.668-3.238-2.068-5.185-3.174-5.324-3.028-.118.128-.617 1.281-1.106 2.561s-1.159 3.327-1.485 4.542a60 60 0 0 0-1 4.658c-.256 1.542-.415 3.95-.427 6.521-.01 2.243.123 5.073.294 6.289.173 1.216.536 3.26.807 4.541.272 1.281.868 3.587 1.324 5.124a93 93 0 0 0 1.848 5.473 122 122 0 0 0 2.213 5.356 186 186 0 0 0 2.825 5.94c.896 1.792 1.573 3.284 1.507 3.318-.069.033-.968-.91-2.001-2.096-1.03-1.185-2.983-3.726-4.339-5.647s-3.228-4.961-4.162-6.754-2.106-4.309-2.605-5.59a58 58 0 0 1-1.599-4.891c-.38-1.409-.884-3.82-1.119-5.357-.25-1.639-.422-4.189-.42-6.171.002-1.856.183-4.584.405-6.056.22-1.471 1.072-5.193 1.892-8.267s1.774-6.165 2.117-6.871c.341-.706.867-1.528 1.163-1.828a5.4 5.4 0 0 1 1.221-.873c.373-.18 1.207-.329 1.851-.331"/><path fill="#fff" fill-opacity=".2" fill-rule="evenodd" d="M270.765 479.115c1.156.068 3.433.235 5.063.373 1.63.139 3.91.372 5.064.519 1.514.193 2.581.496 3.828 1.09 1.183.561 2.314 1.376 3.589 2.58 1.022.969 2.369 2.495 2.989 3.391.622.897 1.341 1.98 1.598 2.404.464.766.464.78-.025 1.116-.272.186-1.104.563-1.853.84-1.121.415-1.877.503-4.322.508-2.176.002-3.391-.114-4.569-.433a43 43 0 0 1-3.458-1.162c-1.018-.396-2.796-1.309-3.952-2.027-1.154-.715-2.821-2.03-3.705-2.92-.882-.892-2.023-2.371-2.532-3.291s-.941-1.824-.958-2.007c-.02-.187.229-.508.555-.72.475-.308.996-.356 2.688-.261m110.635.147c1.185-.003 1.985.105 2.185.291.171.163.312.531.309.82-.002.288-.276 1.022-.61 1.63s-.832 1.421-1.109 1.805-1.089 1.26-1.803 1.949a26 26 0 0 1-2.781 2.255c-.815.552-2.317 1.367-3.335 1.807-1.02.443-2.63.997-3.581 1.232-1.183.291-2.549.422-4.323.41-2.062-.014-2.897-.124-4.075-.543-.815-.291-1.65-.666-1.852-.833-.324-.266-.181-.597 1.111-2.581.815-1.251 2.26-3.025 3.211-3.945 1.023-.988 2.285-1.931 3.087-2.311.746-.354 2.08-.778 2.964-.943.882-.165 3.162-.424 5.064-.573 1.902-.151 3.505-.317 3.562-.37.056-.054.946-.098 1.976-.1m-28.756 13.384c1.494.045 3.606.257 4.693.471 1.087.216 2.631.671 3.433 1.015.801.343 1.789.988 2.194 1.437.615.68.721.971.634 1.747-.059.512-.405 1.323-.775 1.805-.368.48-1.198 1.239-1.843 1.686-.644.445-2.116 1.276-3.272 1.845-1.156.566-3.491 1.553-5.187 2.191-1.7.638-4.367 1.535-5.928 1.989a147 147 0 0 1-6.299 1.642 339 339 0 0 1-8.151 1.759c-2.581.519-5.08.945-5.557.945-.477-.002-3.643-.522-7.039-1.157-3.397-.634-7.455-1.465-9.016-1.843-1.561-.379-4.369-1.171-6.236-1.758-1.868-.587-4.535-1.546-5.928-2.129-1.393-.584-3.31-1.514-4.261-2.068s-2.26-1.572-2.91-2.259c-.649-.687-1.242-1.565-1.316-1.949s-.072-.988.007-1.339c.079-.352.455-.93.833-1.281.38-.352 1.215-.876 1.852-1.165.64-.289 1.857-.682 2.707-.878s2.655-.419 4.014-.501c1.521-.088 3.275-.032 4.569.147 1.154.161 3.266.601 4.693.983 1.425.38 4.15 1.272 6.052 1.982s5.236 2.068 7.41 3.016c2.173.95 4.063 1.726 4.198 1.726s1.915-.746 3.952-1.659a231 231 0 0 1 6.175-2.657 97 97 0 0 1 4.693-1.735 63 63 0 0 1 4.199-1.211c1.087-.259 2.589-.561 3.335-.673s2.581-.166 4.075-.124m-25.688-22.409c1.892.06 2.461.177 3.829.799a8.7 8.7 0 0 1 2.784 1.975c.647.687 1.388 1.772 1.645 2.413.256.64.545 1.688.639 2.329.102.677.047 1.749-.126 2.561-.165.769-.592 1.91-.953 2.537-.361.626-1.21 1.604-1.89 2.17-.679.569-1.679 1.23-2.223 1.47-.543.242-1.654.538-2.47.659-.896.133-2.042.137-2.902.012-.78-.117-1.949-.441-2.593-.725-.645-.281-1.793-1.094-2.552-1.805-.978-.913-1.546-1.697-1.949-2.687-.405-.997-.57-1.898-.577-3.144-.005-1.055.155-2.208.41-2.912.232-.64.805-1.663 1.277-2.27.474-.608 1.22-1.365 1.662-1.684.442-.317 1.469-.843 2.285-1.172 1.289-.519 1.77-.587 3.704-.526" clip-rule="evenodd"/><path fill="#fff" fill-opacity=".2" d="M326.619 409.029c.408-.01 1.159.086 1.668.214.509.126 1.388.624 1.951 1.104s2.386 2.811 4.051 5.182c1.664 2.368 3.947 5.827 5.073 7.685 1.126 1.856 2.791 4.845 3.7 6.638s1.971 4.071 2.361 5.063c.21.534.433 1.014.613 1.343.181.33.505 1.087.546 1.217.999 3.154 1.808 5.495 2.417 8.037l.183.759c.415 1.731.944 4.456 1.176 6.056.306 2.098.428 4.572.435 8.85.007 5.154-.059 6.246-.509 8.268-.284 1.281-.891 3.614-1.346 5.184-.457 1.57-.902 2.776-.99 2.678s-.213-2.587-.282-5.533c-.091-4.01-.286-6.47-.775-9.782-.361-2.434-.927-5.683-1.261-7.22a90 90 0 0 0-1.484-5.706 87 87 0 0 0-.265-.855c-.855-2.978-1.825-5.241-2.863-7.773l-.851-2.027c-.632-1.504-1.892-4.204-2.799-5.997a125 125 0 0 0-3.386-6.172 158 158 0 0 0-3.445-5.473c-.941-1.409-2.152-3.16-2.69-3.892-.539-.731-1.092-1.301-1.228-1.266s-1.057 1.209-2.05 2.61a162 162 0 0 0-3.579 5.343c-.978 1.537-2.843 4.786-4.142 7.22-1.301 2.433-2.875 5.577-3.5 6.986-.538 1.214-1.04 2.452-1.219 2.997-.782 1.88-1.457 3.497-2.051 5.504.004-.004-.014-.003 0 0-.057.065-.388 1.035-.734 2.155-.348 1.12-.901 3.111-1.232 4.425a95 95 0 0 0-1.099 5.182c-.274 1.537-.682 4.525-.909 6.638-.225 2.112-.479 6.034-.726 13.585l-1.419-3.306c-.598-1.909-.918-4.48-1.128-5.505-.271-1.346-.383-3.482-.398-7.686-.012-3.533.109-6.784.307-8.267.178-1.347.662-4.069 1.074-6.056.137-.658.278-1.302.408-1.88.362-1.616.794-3.269 1.306-5.172a30 30 0 0 1 1.41-4.003c.183-.43.421-1.009.67-1.638a133 133 0 0 1 2.137-5.007c.669-1.474 1.634-3.412 2.146-4.309.511-.896 1.628-2.678 2.48-3.959s2.638-3.796 3.969-5.59c1.331-1.793 2.962-3.824 3.621-4.513s1.511-1.411 1.894-1.607a8 8 0 0 1 1.359-.534 7.6 7.6 0 0 1 1.405-.195"/><path fill="#fff" d="M359.052 429.731c.644-.005 1.506.146 1.914.339s1.012.69 1.343 1.107.937 1.754 1.347 2.97c.408 1.215 1.186 3.994 1.727 6.171.543 2.178 1.165 4.903 1.379 6.056.218 1.153.463 3.773.544 5.822.089 2.297.032 4.709-.151 6.288a66 66 0 0 1-.866 5.241c-.316 1.471-1.087 4.145-1.717 5.938-.627 1.793-1.9 4.728-2.826 6.522-.926 1.793-2.509 4.517-3.522 6.054-1.01 1.537-2.892 4.083-4.179 5.658-1.285 1.571-2.365 2.827-2.403 2.794-.034-.037.447-1.115 1.072-2.396a204 204 0 0 0 2.435-5.24c.716-1.6 1.754-4.064 2.305-5.473.548-1.409 1.444-4.029 1.99-5.822s1.216-4.309 1.487-5.59c.27-1.281.635-3.168.81-4.192.198-1.149.317-3.964.314-7.336-.002-4.134-.109-6.042-.435-7.802-.235-1.281-.651-3.168-.928-4.193a61 61 0 0 0-1.248-3.959c-.412-1.152-.876-2.232-1.034-2.401-.227-.244-1.073.214-4.237 2.303-2.173 1.434-4.38 2.934-4.905 3.333-.621.471-5.782 4.28-6.164 4.531l-.739.47a21 21 0 0 0-1.406 1.003c-1.156.913-3.438 2.927-5.071 4.478-1.635 1.549-3.786 3.816-4.782 5.032-.993 1.215-2.318 3.2-2.812 3.96-.497.756-.865 1.374-.923 1.105-.04-.184.33-1.701.755-2.854.425-1.152 1.33-3.093 2.014-4.308.685-1.216 1.781-2.946 2.441-3.843a77 77 0 0 1 2.778-3.493c.87-1.023 2.708-2.822 6.188-6.326l.366-.325c1.377-1.192 6.082-5.139 7.073-5.898a149 149 0 0 1 4.693-3.421c1.359-.943 2.857-1.844 3.334-2.003.477-.158 1.394-.293 2.039-.3m-66.073-.014c.645-.002 1.564.121 2.038.272.475.152 1.7.799 2.717 1.44 1.02.64 3.437 2.301 5.373 3.686 1.498 1.074 2.81 1.981 3.354 2.323l.184.11.993.768c1.786 1.401 5.498 4.367 7.079 5.948 1.939 1.939 3.109 3.232 4.202 4.525 1.027 1.216 2.548 3.233 3.517 4.849.637 1.061.764 1.293 1.665 2.983.41.769 1.092 2.316 1.517 3.436.422 1.12.77 2.221.775 2.445s-.53-.38-1.192-1.339a58 58 0 0 0-2.765-3.61c-.859-1.025-2.852-3.07-4.43-4.542-1.579-1.472-3.952-3.517-5.279-4.541-1.282-.993-6.96-4.982-7.363-5.17l-.022-.006-.291-.198a6 6 0 0 1-.378-.274c-.257-.223-2.766-1.874-5.575-3.668-3.237-2.067-5.184-3.174-5.323-3.028-.118.128-.617 1.281-1.106 2.562s-1.159 3.326-1.485 4.542a60 60 0 0 0-1 4.658c-.256 1.541-.415 3.949-.427 6.52-.01 2.243.123 5.074.294 6.289a82 82 0 0 0 .807 4.541c.272 1.281.867 3.587 1.324 5.124a92 92 0 0 0 1.848 5.473 122 122 0 0 0 2.213 5.356 185 185 0 0 0 2.825 5.94c.896 1.792 1.573 3.284 1.507 3.318-.069.033-.969-.91-2.001-2.095-1.03-1.186-2.983-3.727-4.339-5.648s-3.228-4.96-4.162-6.754-2.106-4.309-2.605-5.59a58 58 0 0 1-1.599-4.89c-.38-1.409-.885-3.821-1.119-5.358-.25-1.639-.423-4.189-.42-6.171.002-1.856.183-4.583.405-6.055.22-1.472 1.072-5.194 1.892-8.268s1.773-6.165 2.117-6.871c.341-.705.867-1.527 1.163-1.828a5.4 5.4 0 0 1 1.221-.873c.373-.179 1.207-.329 1.851-.331"/><path fill="#fff" fill-opacity=".2" fill-rule="evenodd" d="M3.244 479.115c1.156.068 3.433.235 5.064.373 1.63.139 3.91.372 5.063.519 1.514.193 2.581.496 3.829 1.09 1.183.561 2.314 1.376 3.588 2.58 1.023.969 2.37 2.495 2.989 3.391.622.897 1.341 1.98 1.598 2.404.464.766.464.78-.025 1.116-.271.186-1.104.563-1.852.84-1.122.415-1.877.503-4.323.508-2.176.002-3.39-.114-4.569-.433a43 43 0 0 1-3.458-1.162c-1.018-.396-2.796-1.309-3.952-2.027-1.153-.715-2.82-2.03-3.705-2.92-.882-.892-2.023-2.371-2.532-3.291s-.94-1.824-.958-2.007c-.02-.187.23-.508.556-.72.474-.308.995-.356 2.687-.261m110.635.147c1.186-.003 1.986.105 2.186.291.17.163.311.531.309.82s-.277 1.022-.61 1.63a22 22 0 0 1-1.109 1.805c-.277.384-1.09 1.26-1.803 1.949-.714.687-1.967 1.7-2.782 2.255-.815.552-2.317 1.367-3.334 1.807-1.02.443-2.631.997-3.582 1.232-1.183.291-2.549.422-4.322.41-2.062-.014-2.897-.124-4.075-.543-.816-.291-1.65-.666-1.853-.833-.323-.266-.18-.597 1.112-2.581.815-1.251 2.26-3.025 3.21-3.945 1.023-.988 2.285-1.931 3.088-2.311.746-.354 2.08-.778 2.964-.943.882-.165 3.161-.424 5.063-.573 1.902-.151 3.505-.317 3.562-.37.057-.054.946-.098 1.976-.1m-28.755 13.384c1.494.045 3.606.257 4.693.471 1.086.216 2.63.671 3.433 1.015.8.343 1.788.988 2.193 1.437.615.68.721.971.635 1.747-.06.512-.405 1.323-.776 1.805-.368.48-1.198 1.239-1.842 1.686-.645.445-2.117 1.276-3.273 1.845-1.156.566-3.49 1.553-5.187 2.191-1.7.638-4.367 1.535-5.928 1.989a147 147 0 0 1-6.298 1.642c-1.902.445-5.57 1.237-8.151 1.759-2.581.519-5.08.945-5.558.945-.476-.002-3.643-.522-7.039-1.157-3.396-.634-7.454-1.465-9.015-1.843-1.561-.379-4.37-1.171-6.237-1.758s-4.535-1.546-5.928-2.129c-1.393-.584-3.31-1.514-4.26-2.068-.952-.554-2.26-1.572-2.91-2.259s-1.243-1.565-1.317-1.949-.071-.988.008-1.339c.079-.352.454-.93.832-1.281.38-.352 1.215-.876 1.852-1.165.64-.289 1.858-.682 2.708-.878s2.655-.419 4.013-.501c1.522-.088 3.276-.032 4.57.147 1.153.161 3.265.601 4.693.983 1.425.38 4.15 1.272 6.051 1.982 1.902.71 5.236 2.068 7.41 3.016 2.174.95 4.063 1.726 4.199 1.726s1.914-.746 3.952-1.659a230 230 0 0 1 6.175-2.657 97 97 0 0 1 4.693-1.735 63 63 0 0 1 4.199-1.211c1.087-.259 2.588-.561 3.334-.673s2.581-.166 4.076-.124m-25.688-22.409c1.892.06 2.46.177 3.828.799a8.7 8.7 0 0 1 2.784 1.975c.647.687 1.388 1.772 1.645 2.413s.546 1.688.64 2.329c.101.677.047 1.749-.126 2.561-.166.769-.593 1.91-.954 2.537-.36.626-1.21 1.604-1.89 2.17-.678.569-1.679 1.23-2.222 1.47-.544.242-1.655.538-2.47.659-.897.133-2.043.137-2.902.012-.78-.117-1.95-.441-2.594-.725-.644-.281-1.793-1.094-2.551-1.805-.978-.913-1.546-1.697-1.949-2.687-.405-.997-.57-1.898-.578-3.144-.005-1.055.156-2.208.41-2.912.232-.64.805-1.663 1.277-2.27.474-.608 1.22-1.365 1.662-1.684.442-.317 1.47-.843 2.285-1.172 1.29-.519 1.771-.587 3.705-.526" clip-rule="evenodd"/><path fill="#fff" d="M59.099 409.029c.407-.01 1.158.086 1.667.214.509.126 1.388.624 1.951 1.104s2.386 2.811 4.051 5.182c1.665 2.368 3.947 5.827 5.074 7.685 1.126 1.856 2.79 4.845 3.7 6.638.908 1.793 1.97 4.071 2.36 5.063.21.534.433 1.014.614 1.343.18.33.504 1.087.545 1.217 1 3.154 1.809 5.495 2.418 8.037l.183.759c.415 1.731.943 4.456 1.176 6.056.306 2.098.427 4.572.435 8.85.007 5.154-.06 6.246-.51 8.268-.283 1.281-.89 3.614-1.345 5.184-.457 1.57-.902 2.776-.991 2.678-.086-.098-.212-2.587-.282-5.533-.091-4.01-.286-6.47-.775-9.782-.36-2.434-.927-5.683-1.26-7.22a91 91 0 0 0-1.484-5.706q-.136-.442-.266-.855c-.854-2.978-1.824-5.241-2.863-7.773l-.85-2.027c-.633-1.504-1.893-4.204-2.8-5.997a125 125 0 0 0-3.385-6.172 158 158 0 0 0-3.446-5.473c-.94-1.409-2.151-3.16-2.69-3.892-.538-.731-1.091-1.301-1.227-1.266s-1.058 1.209-2.05 2.61a162 162 0 0 0-3.58 5.343c-.978 1.537-2.842 4.786-4.141 7.22-1.302 2.433-2.876 5.577-3.5 6.986-.539 1.214-1.04 2.452-1.22 2.997-.782 1.88-1.456 3.497-2.05 5.504.004-.004-.015-.003 0 0-.057.065-.388 1.035-.734 2.155-.348 1.12-.901 3.111-1.232 4.425a96 96 0 0 0-1.1 5.182c-.274 1.537-.682 4.525-.909 6.638-.225 2.112-.479 6.034-.726 13.585l-1.419-3.306c-.597-1.909-.917-4.48-1.127-5.505-.272-1.346-.383-3.482-.398-7.686-.012-3.533.109-6.784.306-8.267.178-1.347.662-4.069 1.075-6.056.137-.658.277-1.302.407-1.88.363-1.616.795-3.269 1.306-5.172a30 30 0 0 1 1.41-4.003c.184-.43.422-1.009.67-1.638a133 133 0 0 1 2.137-5.007c.67-1.474 1.635-3.412 2.146-4.309.512-.896 1.628-2.678 2.48-3.959s2.638-3.796 3.97-5.59c1.331-1.793 2.961-3.824 3.62-4.513s1.512-1.411 1.895-1.607c.38-.196.99-.436 1.358-.534a7.6 7.6 0 0 1 1.406-.195"/><path fill="#fff" fill-opacity=".2" d="M91.531 429.731c.645-.005 1.507.146 1.914.339s1.013.69 1.344 1.107.937 1.754 1.347 2.97c.407 1.215 1.185 3.994 1.726 6.171.544 2.178 1.165 4.903 1.38 6.056.218 1.153.463 3.773.544 5.822.09 2.297.032 4.709-.151 6.288a66 66 0 0 1-.866 5.241c-.317 1.471-1.087 4.145-1.717 5.938-.628 1.793-1.9 4.728-2.826 6.522-.927 1.793-2.51 4.517-3.522 6.054-1.01 1.537-2.893 4.083-4.18 5.658-1.284 1.571-2.364 2.827-2.402 2.794-.034-.037.447-1.115 1.071-2.396a203 203 0 0 0 2.436-5.24c.716-1.6 1.754-4.064 2.305-5.473.548-1.409 1.444-4.029 1.99-5.822s1.215-4.309 1.487-5.59c.27-1.281.634-3.168.81-4.192.197-1.149.317-3.964.314-7.336-.002-4.134-.11-6.042-.435-7.802-.235-1.281-.651-3.168-.928-4.193a62 62 0 0 0-1.248-3.959c-.412-1.152-.876-2.232-1.034-2.401-.228-.244-1.074.214-4.238 2.303-2.173 1.434-4.38 2.934-4.904 3.333-.62.471-5.782 4.28-6.164 4.531l-.74.47c-.407.268-.927.625-1.405 1.003-1.156.913-3.438 2.927-5.07 4.478-1.636 1.549-3.788 3.816-4.783 5.032-.993 1.215-2.318 3.2-2.812 3.96-.497.756-.866 1.374-.923 1.105-.04-.184.33-1.701.755-2.854.424-1.152 1.33-3.093 2.014-4.308.684-1.216 1.781-2.946 2.44-3.843a77 77 0 0 1 2.779-3.493c.87-1.023 2.708-2.822 6.187-6.326l.367-.325c1.377-1.192 6.081-5.139 7.073-5.898a148 148 0 0 1 4.693-3.421c1.358-.943 2.857-1.844 3.334-2.003.477-.158 1.394-.293 2.038-.3m-66.072-.014c.645-.002 1.564.121 2.038.272s1.7.799 2.717 1.44c1.02.64 3.437 2.301 5.373 3.686 1.497 1.074 2.81 1.981 3.353 2.323l.185.11.993.768c1.786 1.401 5.498 4.367 7.078 5.948 1.94 1.939 3.11 3.232 4.203 4.525 1.027 1.216 2.547 3.233 3.517 4.849.637 1.061.764 1.293 1.665 2.983.41.769 1.092 2.316 1.517 3.436.422 1.12.77 2.221.775 2.445s-.53-.38-1.192-1.339c-.662-.962-1.905-2.585-2.765-3.61s-2.852-3.07-4.43-4.542c-1.579-1.472-3.953-3.517-5.279-4.541-1.282-.993-6.96-4.982-7.363-5.17l-.023-.006-.29-.198a6 6 0 0 1-.379-.274c-.257-.223-2.766-1.874-5.574-3.668-3.237-2.067-5.184-3.174-5.323-3.028-.119.128-.618 1.281-1.107 2.562s-1.158 3.326-1.484 4.542a60 60 0 0 0-1 4.658c-.257 1.541-.415 3.949-.428 6.52-.01 2.243.124 5.074.294 6.289.173 1.216.536 3.261.808 4.541s.867 3.587 1.324 5.124a92 92 0 0 0 1.848 5.473 123 123 0 0 0 2.213 5.356 183 183 0 0 0 2.825 5.94c.896 1.792 1.573 3.284 1.507 3.318-.07.033-.969-.91-2.001-2.095-1.03-1.186-2.983-3.727-4.34-5.648-1.355-1.921-3.227-4.96-4.161-6.754s-2.107-4.309-2.606-5.59-1.218-3.481-1.598-4.89-.885-3.821-1.12-5.358c-.249-1.639-.422-4.189-.42-6.171.003-1.856.184-4.583.406-6.055.22-1.472 1.072-5.194 1.892-8.268s1.773-6.165 2.117-6.871c.34-.705.866-1.527 1.163-1.828a5.4 5.4 0 0 1 1.22-.873c.373-.179 1.208-.329 1.852-.331"/></svg>